<?xml version="1.0" encoding="utf-8"?>
<!-- Generator: Adobe Illustrator 21.0.0, SVG Export Plug-In . SVG Version: 6.00 Build 0)  -->
<svg version="1.1" id="Layer_1" xmlns="http://www.w3.org/2000/svg" xmlns:xlink="http://www.w3.org/1999/xlink" x="0px" y="0px"
	 viewBox="0 0 300 158" style="enable-background:new 0 0 300 158;" xml:space="preserve">
<style type="text/css">
	.st0{fill:#1C1C1C;}
</style>
<g>
	<path class="st0" d="M104.4,156.8v-6.3h-5.8c0,2.1,0,4.2,0,6.3h-2.5c0-3.2,0.1-6.5,0.1-9.7c0-1.3,0-2.6,0-3.9h2.5v6.1h5.8v-3.1
		c0-1,0-2,0-3.1h2.5v13.6H104.4z"/>
	<path class="st0" d="M120.7,156.8c-0.5-1.5-1.1-2.9-1.7-4.4h-4.7l-1.9,4.4h-1.5l5.9-13.7h0.9c0.7,2,1.6,3.8,2.4,5.7
		c1.1,2.7,2.3,5.3,3.5,8H120.7z M116.6,146.8l-1.7,4.2h3.5L116.6,146.8z"/>
	<path class="st0" d="M137.4,143.2h1.2l0,14.3c-1.4-1.5-2.7-2.9-4-4.4c-2-2.2-4.1-4.4-6-6.7v10.4h-1.2c0-3.5,0-6.9,0-10.4
		c0-1.1,0-2.1-0.2-3.2h1.8c1,1.3,2.1,2.6,3.2,3.9c1.6,1.9,3.5,3.7,5.2,5.7V143.2z"/>
	<path class="st0" d="M153,150.5h2.3v5.4c-1.4,0.7-3.6,1.1-5.1,1.1c-4,0-7.3-2.9-7.3-7c0-4.1,3.1-7.2,7.2-7.2c2,0,3.6,0.6,5.2,1.8
		l-0.8,2c-0.8-1.7-2.3-2.5-4.2-2.5c-3.3,0-4.8,2.9-4.8,5.9c0,3.2,1.6,5.7,5,5.7c0.7,0,1.8-0.2,2.4-0.6V150.5z"/>
	<path class="st0" d="M168.8,156.8c-0.5-1.5-1.1-2.9-1.7-4.4h-4.7l-1.9,4.4h-1.5l5.9-13.7h0.9c0.7,2,1.6,3.8,2.4,5.7
		c1.1,2.7,2.3,5.3,3.5,8H168.8z M164.7,146.8L163,151h3.5L164.7,146.8z"/>
	<path class="st0" d="M185.5,143.2h1.2l0,14.3c-1.4-1.5-2.7-2.9-4-4.4c-2-2.2-4.1-4.4-6-6.7v10.4h-1.2c0-3.5,0-6.9,0-10.4
		c0-1.1,0-2.1-0.2-3.2h1.8c1,1.3,2.1,2.6,3.2,3.9c1.6,1.9,3.5,3.7,5.2,5.7V143.2z"/>
	<path class="st0" d="M201.1,150.5h2.3v5.4c-1.4,0.7-3.6,1.1-5.1,1.1c-4,0-7.3-2.9-7.3-7c0-4.1,3.1-7.2,7.2-7.2c2,0,3.6,0.6,5.2,1.8
		l-0.8,2c-0.8-1.7-2.3-2.5-4.2-2.5c-3.3,0-4.8,2.9-4.8,5.9c0,3.2,1.6,5.7,5,5.7c0.7,0,1.8-0.2,2.4-0.6V150.5z"/>
	<path class="st0" d="M125.4,21.8V2H118l0.5-1.9h18.4l0,1.9h-7.5c0,6.6,0,13.1,0,19.7H125.4z"/>
	<path class="st0" d="M125.4,21.8V2H118l0.5-1.9h18.4l0,1.9h-7.5c0,6.6,0,13.1,0,19.7H125.4z"/>
	<path class="st0" d="M155.8,21.8v-9.9h-9.3c0,3.3,0,6.6,0,9.9h-3.9c0-5.1,0.1-10.3,0.1-15.4c0-2.1,0-4.1-0.1-6.2h3.9v9.8h9.3V5
		c0-1.6,0-3.2-0.1-4.9h4v21.6H155.8z"/>
	<path class="st0" d="M155.8,21.8v-9.9h-9.3c0,3.3,0,6.6,0,9.9h-3.9c0-5.1,0.1-10.3,0.1-15.4c0-2.1,0-4.1-0.1-6.2h3.9v9.8h9.3V5
		c0-1.6,0-3.2-0.1-4.9h4v21.6H155.8z"/>
	<path class="st0" d="M167.7,21.8V0.1h11.4l0.9,2.2C178.3,2,176.5,2,174.8,2h-3.1v7.8h1.5c1.7,0,3.5-0.1,5.2-0.3l-0.1,2.3
		c-1.6-0.1-3.3-0.2-4.9-0.2c-0.6,0-1.2,0-1.8,0.1v8h3.9c2,0,4,0,6-0.4l-0.8,2.3H167.7z"/>
	<path class="st0" d="M167.7,21.8V0.1h11.4l0.9,2.2C178.3,2,176.5,2,174.8,2h-3.1v7.8h1.5c1.7,0,3.5-0.1,5.2-0.3l-0.1,2.3
		c-1.6-0.1-3.3-0.2-4.9-0.2c-0.6,0-1.2,0-1.8,0.1v8h3.9c2,0,4,0,6-0.4l-0.8,2.3H167.7z"/>
	<path class="st0" d="M32.2,71.4l0-0.4c9.8-1.1,13.3-7.6,13.3-12.9c0-8.6-7.4-13.8-19.8-13.8H0c2.5,4.6,2.5,4.6,2.5,6.7v44.3
		c0,2,0,2-2.5,6.7h25.5c13.6,0,22-6.4,22-16.6C47.5,77.6,41.6,72.2,32.2,71.4 M15.1,50.1h7.5c6.3,0,9.8,3.3,9.8,9.2
		c0,6.1-3.5,9.4-9.8,9.4h-7.5V50.1z M23.5,96h-8.4V74.5h8.3c6.8,0,11.3,4.2,11.3,10.7C34.7,91.9,30.4,96,23.5,96"/>
	<path class="st0" d="M73.4,51c0-2,0-2,2.5-6.7H58.4c2.5,4.6,2.5,4.6,2.5,6.7v44.3c0,2,0,2-2.5,6.7h39.9l1.4-13.2
		C91.3,95,88.9,95,85,95H73.4V51z"/>
	<path class="st0" d="M285.1,95h-19.8l0.2-0.3l33.3-50.4h-50v12.9c5.8-5.8,7.7-5.8,11.4-5.8H280l-0.2,0.3l-33.3,50.4h51.7l1.4-13.2
		C291,95,288.9,95,285.1,95"/>
	<path class="st0" d="M298.4,102.4l1.6-14.3l-0.3,0.2 M299.2,44.2l0.2-0.3 M299.8,88.5l-1.5,13.8"/>
	<path class="st0" d="M298.3,102.3l1.5-13.8 M299.6,88.9l-1.4,13.2"/>
	<path class="st0" d="M143.2,44.1h-8.5l-21.6,48.6c-2.2,4.7-2.2,4.8-4.8,9.5h14.4c-2.8-4.5-2.8-4.7-1.4-8l3-7.2l1.1-2.8h22.3
		l1.1,2.8l2.8,6.9c1.3,3.3,1.3,3.5-1.4,8.4h19.3c-2.4-4.2-2.5-4.3-4.6-9L143.2,44.1z M128.1,77.4l0.1-0.2l8.4-20.4l0.2,0.4l8.2,20.2
		H128.1z"/>
	<path class="st0" d="M237.3,44.3h-13.7c3.1,4.7,3.1,4.7,3.1,6.8v30.6l-0.3-0.4l-31.4-37.1h-14.8l2.2,2.3v48.7c0,2,0,2-2.5,6.7h14.1
		c-3.4-4.7-3.4-4.7-3.4-6.8V58.7l0.3,0.4l37.6,43h6.5V51C234.9,49,234.9,49,237.3,44.3"/>
</g>
</svg>
